# File created by Blade
# Date/Time:  Wed Jan 21 19:13:57 2015
# Frame Rate: 120.000 fps
#------------------------------------------------------
:FULLY-SPECIFIED
:DEGREES
978
root -1.390792 32.812073 -0.241087 47.789079 2.907444 2.329712
RightUpLeg -37.697063 -4.200810 3.630250
RightLeg 3.772613 -0.000000 -0.000000
RightFoot -13.411849 -0.007464 16.515603
RightToeBase 15.400703 -0.000000 -0.000000
LeftUpLeg -36.850897 -0.585246 -3.638482
LeftLeg 0.818110 -0.000000 -0.000000
LeftFoot -4.175174 -8.267502 -8.295050
LeftToeBase 0.056856 -0.000000 -0.000000
Spine -48.990263 -2.814063 -0.588193
RightShoulder -14.927429 6.285475 -25.341579
RightArm -9.721134 -50.773458 111.716286
RightForeArm 21.592622 -0.000000 10.441403
RightHand 11.465271 0.000000 6.223028
RightHandThumb1 -24.326973 -0.000000 -32.862282
LeftShoulder -5.607927 9.247962 19.923246
LeftArm 15.486131 38.990535 -93.435338
LeftForeArm 4.193701 -0.000000 18.167349
LeftHand -14.357342 -0.000000 3.436655
LeftHandThumb1 -26.253704 0.000000 33.147579
Head -7.604280 1.469839 6.487270
979
root -1.383485 32.795024 -0.294955 47.786040 2.578266 2.320017
RightUpLeg -37.791216 -4.252730 3.486814
RightLeg 3.705474 -0.000000 -0.000000
RightFoot -13.305386 0.637084 16.709656
RightToeBase 15.491376 -0.000000 -0.000000
LeftUpLeg -36.939401 -0.612361 -3.636185
LeftLeg 0.906100 -0.000000 -0.000000
LeftFoot -4.393693 -8.349628 -8.192339
LeftToeBase 0.065957 -0.000000 -0.000000
Spine -48.856053 -2.533850 -0.632297
RightShoulder -14.793423 6.339810 -25.354379
RightArm -9.589661 -50.842517 111.443155
RightForeArm 21.707174 -0.000000 10.509383
RightHand 11.430385 -0.000000 6.225202
RightHandThumb1 -24.326973 -0.000000 -32.862282
LeftShoulder -5.565465 9.319873 19.936722
LeftArm 15.598493 39.377476 -93.535472
LeftForeArm 3.997537 -0.000000 18.300517
LeftHand -14.290856 -0.000000 3.384564
LeftHandThumb1 -26.253704 0.000000 33.147579
Head -8.090391 1.753995 6.377202
980
root -1.381371 32.782164 -0.351208 47.772851 2.323998 2.291519
RightUpLeg -37.905519 -4.349392 3.410032
RightLeg 3.692251 -0.000000 -0.000000
RightFoot -13.183355 1.320041 16.823687
RightToeBase 15.655077 -0.000000 -0.000000
LeftUpLeg -37.124302 -0.627449 -3.591909
LeftLeg 1.178450 -0.000000 -0.000000
LeftFoot -4.700289 -8.485775 -8.192212
LeftToeBase 0.103483 -0.000000 -0.000000
Spine -48.697251 -2.288038 -0.640400
RightShoulder -14.695293 6.368393 -25.344178
RightArm -9.420528 -50.894791 111.149660
RightForeArm 21.861985 -0.000000 10.535114
RightHand 11.553589 -0.000000 6.090527
RightHandThumb1 -24.326973 -0.000000 -32.862282
LeftShoulder -5.484576 9.414721 19.964767
LeftArm 15.708573 39.737479 -93.599458
LeftForeArm 4.202185 -0.000000 18.539106
LeftHand -14.284720 -0.000000 2.939482
LeftHandThumb1 -26.253704 0.000000 33.147579
Head -8.560627 1.963177 6.336752
981
root -1.379176 32.773616 -0.415320 47.736152 2.141920 2.273120
RightUpLeg -38.057767 -4.394384 3.292081
RightLeg 3.805547 -0.000000 -0.000000
RightFoot -13.100952 1.897660 16.923863
RightToeBase 15.797300 -0.000000 -0.000000
LeftUpLeg -37.391234 -0.623214 -3.573979
LeftLeg 1.615885 -0.000000 -0.000000
LeftFoot -5.037119 -8.627459 -8.101658
LeftToeBase 0.260439 -0.000000 -0.000000
Spine -48.480545 -2.118254 -0.551128
RightShoulder -14.551644 6.504399 -25.358259
RightArm -9.325379 -50.833119 110.914731
RightForeArm 21.873755 -0.000000 10.543980
RightHand 11.680058 -0.000000 5.773393
RightHandThumb1 -24.326973 -0.000000 -32.862282
LeftShoulder -5.447049 9.513756 19.968318
LeftArm 15.810648 40.088041 -93.623278
LeftForeArm 4.264987 -0.000000 18.841867
LeftHand -14.154269 -0.000000 2.767555
LeftHandThumb1 -26.253704 0.000000 33.147579
Head -9.066664 2.236179 6.260684
982
root -1.380263 32.767376 -0.481311 47.688571 2.022947 2.285815
RightUpLeg -38.139200 -4.376759 3.098945
RightLeg 3.802770 -0.000000 -0.000000
RightFoot -12.959538 2.397503 17.255367
RightToeBase 15.891633 -0.000000 -0.000000
LeftUpLeg -37.701730 -0.672707 -3.547502
LeftLeg 2.144207 -0.000000 -0.000000
LeftFoot -5.361932 -8.707697 -7.851946
LeftToeBase 0.247683 -0.000000 -0.000000
Spine -48.234933 -1.994477 -0.484961
RightShoulder -14.444272 6.447860 -25.336969
RightArm -8.963673 -50.743311 110.434994
RightForeArm 21.953442 -0.000000 10.629065
RightHand 11.709367 0.000000 5.950910
RightHandThumb1 -24.326973 -0.000000 -32.862282
LeftShoulder -5.331778 9.592208 20.035436
LeftArm 15.959012 40.552222 -93.573080
LeftForeArm 4.243516 -0.000000 19.147682
LeftHand -14.015256 -0.000000 2.565634
LeftHandThumb1 -26.253704 0.000000 33.147579
Head -9.552654 2.422879 6.272129
983
root -1.383040 32.766086 -0.546870 47.608121 2.007490 2.259301
RightUpLeg -38.245600 -4.406334 3.042828
RightLeg 3.951818 -0.000000 -0.000000
RightFoot -12.875986 2.777102 17.389233
RightToeBase 15.953939 -0.000000 -0.000000
LeftUpLeg -37.985628 -0.816307 -3.380531
LeftLeg 2.646280 -0.000000 -0.000000
LeftFoot -5.663724 -8.678624 -7.514320
LeftToeBase 0.242559 -0.000000 -0.000000
Spine -47.960319 -1.892059 -0.325305
RightShoulder -14.289425 6.451586 -25.346266
RightArm -8.746158 -50.561124 110.026375
RightForeArm 21.921959 -0.000000 10.805725
RightHand 11.739742 -0.000000 5.820790
RightHandThumb1 -24.326973 -0.000000 -32.862282
LeftShoulder -5.226613 9.689653 20.092485
LeftArm 16.153868 41.022563 -93.464460
LeftForeArm 4.358904 -0.000000 19.434903
LeftHand -13.725427 -0.000000 2.333145
LeftHandThumb1 -26.253704 0.000000 33.147579
Head -10.000300 2.588000 6.292507
984
root -1.389827 32.764549 -0.614320 47.504817 2.026150 2.239384
RightUpLeg -38.184858 -4.167372 2.806290
RightLeg 3.832477 -0.000000 -0.000000
RightFoot -12.748482 2.862020 17.788992
RightToeBase 15.883695 -0.000000 -0.000000
LeftUpLeg -38.237575 -1.035068 -3.150475
LeftLeg 3.112644 -0.000000 -0.000000
LeftFoot -5.990939 -8.577056 -7.226589
LeftToeBase 0.290364 -0.000000 -0.000000
Spine -47.652416 -1.852721 -0.124082
RightShoulder -14.140450 6.393494 -25.348089
RightArm -8.398474 -50.375026 109.552529
RightForeArm 22.028682 -0.000000 10.969181
RightHand 11.703402 0.000000 5.905658
RightHandThumb1 -24.326973 -0.000000 -32.862282
LeftShoulder -5.175325 9.753762 20.215693
LeftArm 16.339315 41.569273 -93.361513
LeftForeArm 4.483862 -0.000000 19.698110
LeftHand -13.477485 0.000000 1.981833
LeftHandThumb1 -26.253704 0.000000 33.147579
Head -10.405273 2.784155 6.329188
985
root -1.399148 32.764422 -0.676233 47.352365 2.104806 2.217381
RightUpLeg -38.125650 -4.087644 2.730734
RightLeg 3.810828 -0.000000 -0.000000
RightFoot -12.681303 2.931217 17.902269
RightToeBase 15.960290 -0.000000 -0.000000
LeftUpLeg -38.435092 -1.233548 -2.920041
LeftLeg 3.574753 -0.000000 -0.000000
LeftFoot -6.281124 -8.499560 -6.954029
LeftToeBase 0.365643 -0.000000 -0.000000
Spine -47.313453 -1.813712 0.064748
RightShoulder -14.041223 6.363601 -25.371141
RightArm -8.202505 -50.165457 109.184218
RightForeArm 22.057567 -0.000000 11.183751
RightHand 11.731075 -0.000000 5.704548
RightHandThumb1 -24.326973 -0.000000 -32.862282
LeftShoulder -5.073884 9.831818 20.368963
LeftArm 16.541286 42.042185 -93.253596
LeftForeArm 4.732519 0.000000 19.934025
LeftHand -13.192708 -0.000000 1.585752
LeftHandThumb1 -26.253704 0.000000 33.147579
Head -10.736004 2.861683 6.418325
986
root -1.411217 32.764584 -0.734668 47.216835 2.231106 2.149350
RightUpLeg -38.121830 -4.081221 2.811706
RightLeg 3.885161 -0.000000 -0.000000
RightFoot -12.638129 2.974168 17.923997
RightToeBase 16.038428 -0.000000 -0.000000
LeftUpLeg -38.641902 -1.380351 -2.662910
LeftLeg 4.026633 -0.000000 -0.000000
LeftFoot -6.610647 -8.460359 -6.703063
LeftToeBase 0.569477 -0.000000 -0.000000
Spine -47.017761 -1.787301 0.330330
RightShoulder -13.909526 6.276862 -25.424592
RightArm -7.883932 -49.829766 108.802530
RightForeArm 22.074907 -0.000000 11.223816
RightHand 11.936376 -0.000000 5.541952
RightHandThumb1 -24.326973 -0.000000 -32.862282
LeftShoulder -5.007112 9.862487 20.564407
LeftArm 16.758773 42.688695 -93.101191
LeftForeArm 4.945460 -0.000000 20.100747
LeftHand -12.879756 -0.000000 0.980211
LeftHandThumb1 -26.253704 0.000000 33.147579
Head -10.996994 2.941960 6.538842
